#tb 0: 1/1000
0,          1,          1,        0,   126720, 0xcefaec47
0,         33,         33,        0,   126720, 0xa416ece5
0,         66,         66,        0,   126720, 0xa416ece5
0,        100,        100,        0,   126720, 0xa416ece5
0,        133,        133,        0,   126720, 0x60d6ed27
0,        166,        166,        0,   126720, 0x259af497
0,        200,        200,        0,   126720, 0x5e6ff4d7
0,        233,        233,        0,   126720, 0xcc10f4b7
0,        266,        266,        0,   126720, 0x763ab817
0,        300,        300,        0,   126720, 0xeb6fb8d7
0,        333,        333,        0,   126720, 0xda71b917
0,        367,        367,        0,   126720, 0x0967b8f7
0,        400,        400,        0,   126720, 0x4b62b947
0,        433,        433,        0,   126720, 0xbb1abbb7
0,        467,        467,        0,   126720, 0x273fbc37
0,        500,        500,        0,   126720, 0x16eebbd7
0,        533,        533,        0,   126720, 0x105eb927
0,        567,        567,        0,   126720, 0x7fa3ae27
0,        600,        600,        0,   126720, 0x722e99f7
0,        633,        633,        0,   126720, 0x5ac9a827
0,        667,        667,        0,   126720, 0x07beba77
0,        700,        700,        0,   126720, 0x29d6a887
0,        734,        734,        0,   126720, 0xa5caab87
0,        767,        767,        0,   126720, 0x9ca7aac7
0,        800,        800,        0,   126720, 0xb7debcd7
0,        834,        834,        0,   126720, 0xd115a757
0,        867,        867,        0,   126720, 0x6ddaef32
0,        900,        900,        0,   126720, 0xde1bb900
0,        934,        934,        0,   126720, 0xac6c071b
0,        967,        967,        0,   126720, 0x04e7897c
0,       1000,       1000,        0,   126720, 0x5eee050f
0,       1034,       1034,        0,   126720, 0xe675be59
0,       1067,       1067,        0,   126720, 0xdc3e0837
0,       1101,       1101,        0,   126720, 0x68cfda2b
0,       1134,       1134,        0,   126720, 0xe572dfc9
0,       1167,       1167,        0,   126720, 0x582fb176
0,       1201,       1201,        0,   126720, 0xa9477df0
0,       1234,       1234,        0,   126720, 0xbc3cc34f
0,       1267,       1267,        0,   126720, 0xcf8cb0e2
0,       1301,       1301,        0,   126720, 0xcff1db35
0,       1334,       1334,        0,   126720, 0xc6e10f9f
0,       1368,       1368,        0,   126720, 0x75ae61b6
0,       1401,       1401,        0,   126720, 0x12af3119
0,       1434,       1434,        0,   126720, 0x85597543
0,       1468,       1468,        0,   126720, 0x68c27aca
0,       1501,       1501,        0,   126720, 0x554fe3e4
0,       1534,       1534,        0,   126720, 0x72ecea95
0,       1568,       1568,        0,   126720, 0xf4d003d1
0,       1601,       1601,        0,   126720, 0x9bf6a605
0,       1634,       1634,        0,   126720, 0x5d00b5fe
0,       1668,       1668,        0,   126720, 0x93f7b040
0,       1701,       1701,        0,   126720, 0x0d6ad154
0,       1735,       1735,        0,   126720, 0x4be8b4ea
0,       1768,       1768,        0,   126720, 0xe39bba0d
0,       1801,       1801,        0,   126720, 0x9c21bad8
0,       1835,       1835,        0,   126720, 0xa567f25b
0,       1868,       1868,        0,   126720, 0x7a82663a
0,       1901,       1901,        0,   126720, 0x72f2a47d
0,       1935,       1935,        0,   126720, 0x4f639ebe
0,       1968,       1968,        0,   126720, 0xab0fce83
0,       2001,       2001,        0,   126720, 0x6cf87d39
0,       2035,       2035,        0,   126720, 0x534a10cc
0,       2068,       2068,        0,   126720, 0x6bbcf44c
0,       2102,       2102,        0,   126720, 0xfdca11d3
0,       2135,       2135,        0,   126720, 0x7e58f5a6
0,       2168,       2168,        0,   126720, 0x5fd753d8
0,       2202,       2202,        0,   126720, 0x0c735615
0,       2235,       2235,        0,   126720, 0x2a034ebf
0,       2268,       2268,        0,   126720, 0xeaf3dd0b
0,       2302,       2302,        0,   126720, 0x0eaf0c1b
0,       2335,       2335,        0,   126720, 0xce5e6794
0,       2369,       2369,        0,   126720, 0xf27c31c3
0,       2402,       2402,        0,   126720, 0xb64af168
0,       2435,       2435,        0,   126720, 0x14cf7974
0,       2469,       2469,        0,   126720, 0x1c2a513d
0,       2502,       2502,        0,   126720, 0xa3f515ab
0,       2535,       2535,        0,   126720, 0xcfd62765
0,       2569,       2569,        0,   126720, 0xbc513f2a
0,       2602,       2602,        0,   126720, 0xbc303fae
0,       2635,       2635,        0,   126720, 0x2f8f69b9
0,       2669,       2669,        0,   126720, 0x0a22cc69
0,       2702,       2702,        0,   126720, 0xd9f67585
0,       2736,       2736,        0,   126720, 0x20403001
0,       2769,       2769,        0,   126720, 0xf92b2a25
0,       2802,       2802,        0,   126720, 0x3c170aad
0,       2836,       2836,        0,   126720, 0x3378251f
0,       2869,       2869,        0,   126720, 0xb3ed5911
0,       2902,       2902,        0,   126720, 0x35d24ef8
0,       2936,       2936,        0,   126720, 0x8da30275
0,       2969,       2969,        0,   126720, 0xc15a3577
0,       3002,       3002,        0,   126720, 0xf2942f53
0,       3036,       3036,        0,   126720, 0x44d8304a
0,       3069,       3069,        0,   126720, 0xd688a932
0,       3103,       3103,        0,   126720, 0x0a24f256
0,       3136,       3136,        0,   126720, 0xfab9c45d
0,       3169,       3169,        0,   126720, 0x10e939ce
0,       3203,       3203,        0,   126720, 0x97fcaa3a
0,       3236,       3236,        0,   126720, 0x45464610
0,       3269,       3269,        0,   126720, 0xfe2e057d
0,       3303,       3303,        0,   126720, 0x0b6718ae
0,       3336,       3336,        0,   126720, 0x5284da7b
0,       3370,       3370,        0,   126720, 0x23efdc35
0,       3403,       3403,        0,   126720, 0xc387b2b3
0,       3436,       3436,        0,   126720, 0xc9e92bf1
0,       3470,       3470,        0,   126720, 0xfbf20a01
0,       3503,       3503,        0,   126720, 0x4d888b2e
0,       3536,       3536,        0,   126720, 0xdd0d74df
0,       3570,       3570,        0,   126720, 0x49d07aa4
0,       3603,       3603,        0,   126720, 0x08382b8e
